<svg width="714" height="714" viewBox="0 0 714 714" fill="none" xmlns="http://www.w3.org/2000/svg">
<g clip-path="url(#clip0_6_3719)">
<rect width="714" height="714" rx="30" fill="white"/>
<g filter="url(#filter0_d_6_3719)">
<path d="M288.25 165.443C288.25 208.213 253.272 242.885 210.125 242.885C166.978 242.885 132 208.213 132 165.443C132 122.672 166.978 88 210.125 88C253.272 88 288.25 122.672 288.25 165.443Z" fill="#F5F5F5"/>
<path d="M288.25 546.46C288.25 589.23 253.272 623.902 210.125 623.902C166.978 623.902 132 589.23 132 546.46C132 503.689 166.978 469.017 210.125 469.017C253.272 469.017 288.25 503.689 288.25 546.46Z" fill="#F5F5F5"/>
<path d="M463.721 627L257 357.424L463.721 88H582L378.171 357.424L480.085 492.212L582 627H463.721Z" fill="#0061FF"/>
</g>
</g>
<defs>
<filter id="filter0_d_6_3719" x="55" y="-8" width="646" height="735" filterUnits="userSpaceOnUse" color-interpolation-filters="sRGB">
<feFlood flood-opacity="0" result="BackgroundImageFix"/>
<feColorMatrix in="SourceAlpha" type="matrix" values="0 0 0 0 0 0 0 0 0 0 0 0 0 0 0 0 0 0 127 0" result="hardAlpha"/>
<feMorphology radius="48" operator="dilate" in="SourceAlpha" result="effect1_dropShadow_6_3719"/>
<feOffset dx="21" dy="2"/>
<feGaussianBlur stdDeviation="25"/>
<feComposite in2="hardAlpha" operator="out"/>
<feColorMatrix type="matrix" values="0 0 0 0 0 0 0 0 0 0 0 0 0 0 0 0 0 0 0.2 0"/>
<feBlend mode="normal" in2="BackgroundImageFix" result="effect1_dropShadow_6_3719"/>
<feBlend mode="normal" in="SourceGraphic" in2="effect1_dropShadow_6_3719" result="shape"/>
</filter>
<clipPath id="clip0_6_3719">
<rect width="714" height="714" rx="30" fill="white"/>
</clipPath>
</defs>
</svg>
